# xmcd
#
# Track frame offsets: 
#        150
#        32797
#        64264
#        103577
#
# Disc length: 1593 seconds
#
# Revision: 0
# Processed by: cddbd v1.5.2PL0 Copyright (c) Steve Scherf et al.
# Submitted via: ExactAudioCopy v0.95b4
#
DISCID=30063704
DTITLE=Jordan and Baker - Explode
DYEAR=1900
DGENRE=
TTITLE0=epic extended rmx
TTITLE1=seikos´n´santoshi rmx
TTITLE2=marc van linden rmx
TTITLE3=radio mix
EXTD=
EXTT0=
EXTT1=
EXTT2=
EXTT3=
PLAYORDER=
